<svg width="200" height="200" viewBox="0 0 200 200" xmlns="http://www.w3.org/2000/svg">
    <!-- Horse's Head and Neck -->
    <path d="M50 120 C 60 90, 80 70, 110 90 Q 120 100, 110 130"
          fill="none" stroke="gray" stroke-width="4"/>

    <!-- Horse's Body (without tail) -->
    <path d="M110 130 Q 100 160, 150 160 Q 180 150, 150 130 Q 140 120, 110 130"
          fill="none" stroke="gray" stroke-width="4"/>

    <!-- Calendar Element -->
    <rect x="140" y="100" width="40" height="40" fill="none" stroke="gray" stroke-width="2"/>

    <!-- Calendar Date Grids -->
    <line x1="150" y1="110" x2="170" y2="110" stroke="gray" stroke-width="1"/>
    <line x1="150" y1="120" x2="170" y2="120" stroke="gray" stroke-width="1"/>
    <line x1="150" y1="130" x2="170" y2="130" stroke="gray" stroke-width="1"/>
    <line x1="150" y1="140" x2="170" y2="140" stroke="gray" stroke-width="1"/>

    <!-- Horse's Mane -->
    <path d="M100 85 Q 95 70, 110 70 Q 125 80, 120 90"
          fill="none" stroke="gray" stroke-width="2"/>

    <!-- Optional Color Accent on Neck -->
    <circle cx="110" cy="120" r="3" fill="lightblue"/>
</svg>
