<?xml version="1.0" standalone="no"?>
<!DOCTYPE svg PUBLIC "-//W3C//DTD SVG 20010904//EN"
 "http://www.w3.org/TR/2001/REC-SVG-20010904/DTD/svg10.dtd">
<svg version="1.0" xmlns="http://www.w3.org/2000/svg"
     width="100" height="100" viewBox="0 0 1024 1024"

     preserveAspectRatio="xMidYMid meet">

<g transform="translate(0.000000,1024.000000) scale(0.100000,-0.100000)"
fill="#000000" stroke="none">
<path d="M5262 7953 c-22 -43 -57 -147 -79 -231 -18 -72 -29 -383 -15 -434
l10 -37 -71 -54 c-40 -30 -133 -112 -207 -182 -170 -160 -242 -215 -355 -270
-135 -66 -217 -86 -375 -92 -121 -5 -198 1 -302 23 -39 9 -36 -11 13 -82 96
-139 251 -268 393 -329 36 -15 66 -33 66 -39 0 -19 -440 -706 -608 -950 l-75
-109 17 -89 c24 -124 92 -342 128 -410 62 -117 185 -214 322 -253 83 -24 249
-17 328 14 144 56 233 146 312 316 l42 90 222 126 223 127 72 -20 c54 -15 107
-21 209 -22 l137 -1 40 -85 c70 -152 136 -408 166 -649 24 -190 17 -597 -14
-756 -44 -232 -94 -381 -198 -590 -76 -153 -206 -353 -293 -447 l-62 -68
-1413 0 c-991 0 -1430 3 -1467 11 -79 17 -172 66 -231 123 -60 58 -119 166
-136 248 -8 38 -11 613 -9 1968 3 1913 3 1915 24 1982 56 180 209 326 391 373
34 9 102 15 170 15 l113 0 0 -86 c0 -70 4 -94 22 -125 22 -39 69 -69 107 -69
40 0 90 28 111 62 19 32 20 49 20 486 0 497 0 496 -60 527 -37 19 -103 19
-140 0 -59 -31 -60 -36 -60 -312 l0 -253 -138 0 c-162 0 -250 -18 -363 -75
-101 -51 -154 -89 -234 -170 -115 -117 -189 -265 -214 -425 -9 -56 -11 -567
-9 -2000 l3 -1925 24 -70 c92 -272 267 -445 521 -514 74 -21 80 -21 3042 -21
2684 0 2968 1 2982 16 12 12 16 37 16 103 0 130 7 125 -204 131 l-175 5 46 55
c64 77 191 269 257 387 175 317 296 778 296 1128 0 118 -12 174 -85 395 -59
179 -176 572 -172 576 6 7 72 -103 119 -199 63 -128 97 -232 138 -427 19 -85
37 -159 41 -164 10 -11 42 61 66 147 22 79 25 422 5 537 -74 410 -252 759
-544 1066 -99 103 -101 106 -134 203 -88 263 -259 521 -494 744 -110 104 -209
164 -287 174 -44 5 -254 -20 -274 -33 -5 -3 -9 -1 -9 4 0 9 81 81 138 122 17
13 32 27 32 30 0 4 -60 47 -132 96 -252 169 -546 297 -818 356 -88 19 -140 23
-323 25 l-219 2 -126 123 c-113 110 -210 188 -234 188 -4 0 -16 -17 -26 -37z
m238 -483 c75 -103 116 -188 131 -276 10 -59 10 -77 -5 -126 -9 -32 -20 -58
-25 -58 -13 0 -117 113 -135 147 -29 57 -46 155 -46 269 0 97 4 124 17 124 2
0 30 -36 63 -80z m-210 -649 c-67 -174 -208 -340 -342 -405 -89 -43 -182 -66
-266 -66 -68 0 -76 13 -15 24 45 7 165 66 246 120 114 76 292 256 365 368 20
32 38 53 40 49 2 -5 -11 -45 -28 -90z m770 -7 c90 -23 290 -15 374 15 l59 21
46 -37 c83 -67 256 -246 340 -352 344 -433 543 -911 615 -1476 33 -260 30
-515 -10 -795 -49 -339 -190 -744 -362 -1039 l-25 -43 24 7 c58 17 148 66 201
108 170 140 334 487 403 854 65 349 61 835 -10 1174 -56 264 -156 552 -275
789 -28 56 -49 104 -47 106 2 2 49 -39 105 -92 114 -107 164 -180 240 -349
105 -233 159 -408 203 -660 21 -116 23 -162 24 -425 0 -322 -9 -397 -76 -671
-124 -511 -395 -926 -761 -1171 -259 -173 -672 -302 -1038 -323 l-115 -7 71
73 c308 322 577 822 693 1290 107 430 107 957 0 1399 -76 315 -113 367 -225
314 -79 -38 -97 -105 -61 -231 162 -561 147 -1185 -40 -1703 -126 -349 -274
-595 -497 -827 -65 -68 -121 -122 -123 -119 -2 2 10 26 27 54 47 78 144 286
188 407 109 299 161 642 149 980 -11 313 -61 588 -164 899 l-45 140 28 20 c95
68 203 195 255 301 92 188 104 503 27 748 -29 92 -77 137 -147 137 -38 0 -56
-6 -80 -26 -42 -35 -47 -74 -21 -180 102 -431 -20 -730 -333 -810 -79 -21
-200 -15 -317 16 -136 35 -172 33 -255 -19 -38 -24 -160 -95 -270 -158 -110
-63 -210 -124 -222 -135 -12 -11 -41 -66 -64 -122 -54 -126 -116 -195 -199
-220 -68 -20 -105 -20 -170 1 -64 20 -133 85 -160 149 -23 53 -70 228 -70 260
0 21 48 98 317 509 58 88 164 252 237 365 l132 204 130 -3 c148 -3 242 13 369
62 163 62 276 138 416 277 79 79 239 275 239 293 0 3 14 28 31 55 l31 50 71
-34 c40 -18 101 -41 137 -50z m2210 -2779 c25 -253 -29 -552 -155 -862 -89
-218 -197 -397 -354 -584 -130 -156 -83 -140 -402 -137 l-274 3 80 44 c104 58
296 182 360 234 172 138 356 374 459 590 62 130 135 341 165 477 11 52 36 149
56 214 19 66 35 128 35 140 0 12 4 16 9 11 5 -6 15 -64 21 -130z"/>
<path d="M4055 5131 c-52 -23 -67 -43 -68 -89 -2 -69 61 -162 140 -209 l46
-27 18 23 c62 76 63 261 1 307 -24 19 -90 17 -137 -5z"/>
<path d="M3463 7961 c-54 -34 -56 -44 -54 -295 0 -127 -2 -239 -5 -248 -5 -16
-21 -18 -160 -18 l-154 0 0 -109 c0 -90 3 -110 16 -115 9 -3 80 -6 159 -6
l143 0 4 -99 c3 -90 5 -102 28 -126 33 -35 72 -55 108 -55 36 0 93 37 109 70
8 17 13 161 17 465 7 477 6 490 -46 528 -40 30 -124 34 -165 8z"/>
<path d="M4173 7961 c-17 -11 -37 -29 -42 -40 -7 -12 -11 -112 -11 -270 l0
-251 -185 0 -186 0 3 -112 3 -113 176 -3 177 -2 7 -100 c6 -77 12 -106 27
-125 43 -55 118 -70 175 -35 65 39 64 31 61 545 l-3 465 -27 27 c-37 37 -127
44 -175 14z"/>
<path d="M4460 7285 l0 -115 210 0 210 0 81 60 c44 33 87 64 95 68 11 6 14 22
12 53 l-3 44 -302 3 -303 2 0 -115z"/>
<path d="M2863 6212 c-38 -30 -43 -63 -43 -308 0 -248 5 -280 49 -303 17 -10
158 -13 424 -12 111 1 119 2 142 26 l25 24 0 266 0 267 -29 29 -29 29 -259 0
c-229 0 -260 -2 -280 -18z"/>
<path d="M2858 5011 l-33 -29 0 -271 0 -270 29 -30 30 -31 257 0 257 0 31 26
31 26 0 273 0 274 -24 28 -24 28 -260 3 -261 3 -33 -30z"/>
<path d="M5211 4786 c-6 -24 -11 -108 -11 -186 0 -149 9 -188 49 -210 12 -6
96 -10 200 -10 151 0 181 2 181 14 0 58 -84 343 -115 392 -12 19 -27 22 -122
28 -59 4 -122 9 -139 12 -30 5 -32 4 -43 -40z"/>
<path d="M2885 3831 c-11 -5 -29 -19 -40 -31 -19 -21 -20 -36 -20 -287 l0
-265 33 -29 33 -30 259 3 260 3 27 28 28 28 -3 260 c-1 161 -6 268 -13 281
-22 42 -64 48 -311 47 -128 0 -242 -4 -253 -8z"/>
<path d="M4034 3821 c-52 -32 -56 -54 -52 -318 3 -261 8 -282 64 -303 14 -6
138 -10 275 -10 272 0 294 4 317 55 19 41 17 507 -3 544 -23 46 -56 51 -324
51 -223 0 -249 -2 -277 -19z"/>
<path d="M5254 3830 c-52 -21 -54 -35 -54 -317 l0 -262 24 -28 c24 -28 25 -28
159 -31 l135 -4 32 89 c55 153 110 409 110 516 l0 47 -192 -1 c-106 0 -203 -4
-214 -9z"/>
</g>
</svg>
